# xmcd
#
# Track frame offsets: 
#        150
#        19473
#        38302
#        59755
#        79632
#        92985
#        115076
#        133680
#        161134
#        185024
#        216265
#        234569
#
# Disc length: 3859 seconds
#
# Revision: 0
# Processed by: cddbd v1.5.2PL0 Copyright (c) Steve Scherf et al.
# Submitted via: ExactAudioCopy v1.3
#
DISCID=a70f110c
DTITLE=Barefoot Iano - High On Life
DYEAR=2019
DGENRE=Electric Blues, Harmonica Blues
TTITLE0=Gonna Get High
TTITLE1=Can You Keep It
TTITLE2=Two People
TTITLE3=Love Her
TTITLE4=Get On You Feet
TTITLE5=Time And Money
TTITLE6=Leaving
TTITLE7=Ask For Nothing
TTITLE8=Whatcha Gonna Be
TTITLE9=Morning After
TTITLE10=Walking With Tim
TTITLE11=Type You Are
EXTD=
EXTT0=
EXTT1=
EXTT2=
EXTT3=
EXTT4=
EXTT5=
EXTT6=
EXTT7=
EXTT8=
EXTT9=
EXTT10=
EXTT11=
PLAYORDER=
